HIERARCHY
ROOT Hips
{
	OFFSET 0.00000 0.00000 0.00000
	CHANNELS 6 Xposition Yposition Zposition Yrotation Zrotation Xrotation 
	JOINT Lumbar
	{
		OFFSET 0 0 0
		CHANNELS 3 Zrotation Xrotation Yrotation
		JOINT Neck
		{
			OFFSET 0.00 0.2701 0.00
			CHANNELS 3 Zrotation Xrotation Yrotation
			End Site
			{
				OFFSET 0.00 0.1379 0.00
			}
		}
		JOINT RightShoulder
		{
			OFFSET 0.0119 0.2289 0.1181
			CHANNELS 3 Zrotation Xrotation Yrotation
			JOINT RightElbow
			{
				OFFSET 0.00 -0.1475 0.00
				CHANNELS 2 Zrotation Yrotation
				JOINT RightWrist
				{
					OFFSET 0.00 -0.1605 0.00
					CHANNELS 2 Zrotation Xrotation
					End Site
					{
						OFFSET 0.0040 -0.1068 0.0006
					}
				}
			}
		}
		JOINT LeftShoulder
		{
			OFFSET 0.0119 0.2289 -0.1181
			CHANNELS 3 Zrotation Xrotation Yrotation
			JOINT LeftElbow
			{
				OFFSET 0.00 -0.1475 0.00
				CHANNELS 2 Zrotation Yrotation
				JOINT LeftWrist
				{
					OFFSET 0.00 -0.1605 0.00
					CHANNELS 2 Zrotation Xrotation
					End Site
					{
						OFFSET 0.0040 -0.1068 -0.0006
					}
				}
			}
		}
	}
	JOINT RightHip
	{
		OFFSET 0.0316 -0.0424 0.0458
		CHANNELS 3 Zrotation Xrotation Yrotation
		JOINT RightKnee
		{
			OFFSET 0.00 -0.2438 0.00
			CHANNELS 1 Zrotation
			JOINT RightAnkle
			{
				OFFSET 0.00 -0.2449 0.00
				CHANNELS 3 Zrotation Xrotation Yrotation
				End Site
				{
					OFFSET 0.1237 -0.0542 0.0051
				}
			}
		}
	}
	JOINT LeftHip
	{
		OFFSET 0.0316 -0.0424 -0.0458
		CHANNELS 3 Zrotation Xrotation Yrotation
		JOINT LeftKnee
		{
			OFFSET 0.00 -0.2438 0.00
			CHANNELS 1 Zrotation
			JOINT LeftAnkle
			{
				OFFSET 0.00 -0.2449 0.00
				CHANNELS 3 Zrotation Xrotation Yrotation
				End Site
				{
					OFFSET 0.1237 -0.0542 -0.0051
				}
			}
		}
	}
}
MOTION
Frames: 33
Frame Time: 0.02
0.00096 0.00164 0.00064 -133.32126 -25.58767 1.2892 41.67791 -0.89056 -8.04087 -16.31837 7.70475 -1.27472 -22.22901 -5.31557 -11.97626 29.67263 95.09995 8.11527 1.5154 -24.90409 3.6841 10.07914 32.18637 -104.53327 16.67307 -1.80047 26.82387 -3.8764 -11.04373 -20.39219 -6.57819 -3.6092 -3.97203 32.51528 4.44003 4.99198 -24.33082 -6.5296 1.65679 2.99931
9e-05 0.00126 0.00099 -133.20095 -25.64115 1.3046 41.75825 -0.92611 -7.95325 -16.18969 7.7087 -1.27582 -22.07299 -5.20294 -11.88056 29.53964 95.0404 8.09056 1.52292 -24.89742 3.88991 9.38972 32.26507 -104.65899 16.70258 -1.81292 26.82005 -3.81727 -11.05488 -20.41512 -6.57109 -3.61022 -3.97396 32.54004 4.515 5.0488 -24.38007 -6.52451 1.63466 2.99171
-0.00078 0.00088 0.00134 -133.08098 -25.69449 1.32003 41.83848 -0.9616 -7.86601 -16.06131 7.71242 -1.27692 -21.91768 -5.09034 -11.78605 29.40782 94.98943 8.06816 1.53185 -24.89083 4.09492 8.70314 32.34369 -104.79112 16.73407 -1.82651 26.81614 -3.75834 -11.06607 -20.43797 -6.56401 -3.61123 -3.97589 32.56462 4.58974 5.10535 -24.42915 -6.51942 1.6126 2.98413
-0.00164 0.00051 0.0017 -132.96105 -25.74782 1.3354 41.9186 -0.99705 -7.77868 -15.93301 7.71633 -1.27801 -21.76216 -4.97797 -11.69086 29.27536 94.93204 8.04406 1.53969 -24.88419 4.30005 8.01603 32.42217 -104.91805 16.76399 -1.83919 26.81232 -3.6994 -11.07719 -20.46083 -6.55694 -3.61225 -3.97781 32.58929 4.66447 5.16197 -24.47825 -6.51434 1.59055 2.97655
-0.00251 0.00013 0.00205 -132.84077 -25.80126 1.3507 41.99877 -1.03256 -7.69091 -15.80445 7.72055 -1.27911 -21.60591 -4.86579 -11.59395 29.14144 94.86121 8.01637 1.54531 -24.87744 4.50612 7.32561 32.50069 -105.03464 16.79071 -1.85005 26.80862 -3.64024 -11.08823 -20.48376 -6.54984 -3.61326 -3.97974 32.61418 4.73944 5.21894 -24.52753 -6.50925 1.56843 2.96895
-0.00338 -0.00025 0.0024 -132.72146 -25.85438 1.36642 42.07914 -1.06801 -7.60479 -15.67648 7.72318 -1.2802 -21.45261 -4.75237 -11.50438 29.01407 94.85095 8.00478 1.56101 -24.87122 4.70892 6.64701 32.57953 -105.1986 16.83197 -1.86924 26.80425 -3.58181 -11.09974 -20.50642 -6.5428 -3.61428 -3.98164 32.63808 4.81368 5.2746 -24.57618 -6.50418 1.54649 2.96142
-0.00424 -0.00063 0.00276 -132.60037 -25.90811 1.38126 42.15901 -1.10353 -7.51548 -15.54744 7.72904 -1.28129 -21.29342 -4.64132 -11.40068 28.87364 94.72354 7.96208 1.55719 -24.86393 4.91789 5.94598 32.65757 -105.2708 16.84514 -1.87229 26.80127 -3.52199 -11.11031 -20.52962 -6.53565 -3.61529 -3.9836 32.66398 4.8893 5.33275 -24.62604 -6.49906 1.52423 2.95375
-0.00511 -0.001 0.00311 -132.48083 -25.96123 1.39693 42.23933 -1.13899 -7.42907 -15.41941 7.73188 -1.28239 -21.13985 -4.52852 -11.30901 28.74526 94.69554 7.94573 1.56994 -24.85764 5.12152 5.26452 32.73647 -105.42078 16.88199 -1.88905 26.79694 -3.46343 -11.12171 -20.55232 -6.52861 -3.61631 -3.98551 32.68798 4.96367 5.38877 -24.67479 -6.494 1.50224 2.94621
-0.00598 -0.00137 0.00346 -132.36351 -26.01381 1.41356 42.32033 -1.17438 -7.34634 -15.29246 7.73117 -1.2835 -20.99239 -4.41174 -11.23613 28.63166 94.82475 7.9713 1.6089 -24.85251 5.31728 4.61126 32.81602 -105.69427 16.957 -1.92745 26.79123 -3.40645 -11.1343 -20.57441 -6.52169 -3.61732 -3.98736 32.70987 5.03644 5.4415 -24.7222 -6.48898 1.48066 2.93885
-0.00683 -0.00179 0.00382 -132.23441 -26.07014 1.42454 42.39783 -1.21017 -7.24281 -15.15883 7.75132 -1.28455 -20.8075 -4.31235 -11.06745 28.43321 94.15693 7.78491 1.515 -24.84053 5.55427 3.80859 32.8906 -105.34278 16.8402 -1.85604 26.79423 -3.34054 -11.14055 -20.6 -6.51403 -3.61834 -3.98952 32.74451 5.11819 5.51111 -24.77736 -6.48363 1.45696 2.93053
-0.00772 -0.0021 0.00416 -132.12953 -26.11815 1.44749 42.48243 -1.2451 -7.18292 -15.03961 7.7272 -1.28572 -20.70303 -4.17982 -11.09294 28.41358 95.10108 8.02678 1.68978 -24.8431 5.70686 3.3129 32.97646 -106.25437 17.11011 -2.00679 26.77838 -3.29337 -11.15983 -20.61821 -6.50795 -3.61936 -3.99106 32.75189 5.18114 5.54642 -24.81612 -6.47904 1.43759 2.92416
-0.00875 -0.00215 0.00442 -132.09693 -26.14637 1.50318 42.5891 -1.27778 -7.24604 -14.95786 7.58218 -1.28721 -20.80813 -3.92602 -11.72311 28.89122 101.09989 9.61566 2.70717 -24.88526 5.60361 3.7378 33.08661 -111.14004 18.6055 -2.8541 26.71399 -3.29862 -11.21772 -20.61612 -6.50616 -3.62018 -3.99079 32.68636 5.1907 5.47534 -24.8098 -6.47611 1.43127 2.92377
-0.00982 -0.00209 0.00465 -132.08755 -26.16556 1.57088 42.70246 -1.30952 -7.35232 -14.89117 7.39252 -1.28881 -20.99507 -3.64435 -12.53568 29.54703 108.60951 11.60544 3.97629 -24.94208 5.41961 4.45791 33.20896 -117.21083 20.46257 -3.91016 26.6299 -3.32235 -11.28781 -20.60663 -6.506 -3.62107 -3.98995 32.59295 5.1817 5.37171 -24.78702 -6.47401 1.42912 2.92524
-0.01087 -0.00208 0.00489 -132.06383 -26.18707 1.6332 42.81108 -1.34168 -7.43677 -14.81867 7.223 -1.29037 -21.15303 -3.39553 -13.21698 30.11726 115.00395 13.29617 5.0596 -24.99248 5.289 4.98994 33.33053 -122.39357 22.04198 -4.81164 26.55295 -3.33716 -11.35094 -20.60058 -6.50506 -3.62198 -3.98943 32.51125 5.18238 5.29147 -24.77179 -6.47185 1.42425 2.92542
-0.01192 -0.00208 0.00515 -132.05631 -26.21664 1.69536 42.9268 -1.37409 -7.53088 -14.74095 7.0543 -1.2919 -21.28046 -3.06237 -14.09995 30.70804 123.17326 15.47001 6.43894 -25.04203 5.08977 5.74415 33.43349 -129.009 24.08473 -5.95829 26.48432 -3.35484 -11.42158 -20.59422 -6.50413 -3.62249 -3.98855 32.43413 5.17782 5.17643 -24.7562 -6.46845 1.42271 2.92742
-0.01298 -0.00202 0.00537 -132.02033 -26.2266 1.76052 43.02941 -1.40548 -7.61483 -14.67878 6.87293 -1.29351 -21.48588 -2.89712 -14.60977 31.29732 128.05096 16.74646 7.26883 -25.09662 5.01179 6.11319 33.57626 -132.97772 25.26782 -6.65294 26.3928 -3.37015 -11.47758 -20.5867 -6.50377 -3.62406 -3.9884 32.34012 5.17971 5.12417 -24.73749 -6.46773 1.41541 2.92615
-0.01398 -0.00181 0.00551 -131.90235 -26.19113 1.83269 43.0931 -1.43637 -7.6621 -14.64551 6.67105 -1.29533 -21.92816 -3.21278 -14.00833 31.85321 123.05382 15.32457 6.45367 -25.16331 5.3108 5.27833 33.84248 -128.84251 23.81172 -5.96653 26.25147 -3.38123 -11.50744 -20.57837 -6.50274 -3.62668 -3.98939 32.21368 5.20476 5.27106 -24.7139 -6.47492 1.38951 2.91469
-0.01499 -0.00154 0.00563 -131.75491 -26.13541 1.90723 43.14336 -1.4658 -7.69709 -14.62876 6.45742 -1.29721 -22.43754 -3.69662 -13.02918 32.40347 114.76624 13.00735 5.08869 -25.23431 5.73071 4.05729 34.1457 -122.08611 21.50664 -4.83174 26.08679 -3.38827 -11.51977 -20.56904 -6.50248 -3.63062 -3.99128 32.07041 5.23683 5.47936 -24.68787 -6.48466 1.35794 2.9
-0.016 -0.00131 0.00576 -131.61892 -26.08422 1.97951 43.20075 -1.49462 -7.73661 -14.61188 6.24675 -1.29905 -22.88992 -4.09642 -12.24991 32.94086 108.26097 11.1814 4.01931 -25.30207 6.08029 3.05885 34.42057 -116.87444 19.71152 -3.9578 25.92642 -3.39237 -11.52771 -20.55977 -6.50319 -3.63532 -3.99348 31.92925 5.26515 5.64737 -24.66302 -6.4927 1.33009 2.88729
-0.01698 -0.00103 0.00588 -131.49021 -26.05088 2.05692 43.25489 -1.52906 -7.78277 -14.56657 6.04416 -1.30096 -23.46025 -4.52667 -11.3684 33.53017 100.60867 9.01754 2.76744 -25.37544 6.49104 1.87593 34.74271 -110.25555 17.42242 -2.85641 25.78951 -3.41623 -11.58472 -20.55181 -6.49877 -3.63469 -3.99284 31.80807 5.29509 5.86481 -24.63689 -6.50289 1.29772 2.87256
-0.01803 -0.00083 0.00602 -131.34119 -25.97764 2.12442 43.31146 -1.55111 -7.81075 -14.58148 5.823 -1.30274 -23.7958 -4.93467 -10.59452 34.03207 94.52976 7.33421 1.75961 -25.43833 6.80537 0.97661 34.97737 -105.87477 15.93399 -2.11172 25.60154 -3.39903 -11.5396 -20.54108 -6.50474 -3.64498 -3.99807 31.64466 5.3237 5.99643 -24.61354 -6.50938 1.27319 2.86116
-0.01937 -0.00088 0.00626 -131.12446 -25.78031 2.16059 43.38482 -1.54195 -7.7988 -14.78188 5.55028 -1.3041 -23.49844 -5.23234 -10.32409 34.08797 93.71753 7.24004 1.57775 -25.46736 6.8134 0.99731 34.93991 -108.79469 17.05407 -2.53006 25.24945 -3.25805 -11.17873 -20.52219 -6.54321 -3.68931 -4.02165 31.3408 5.34603 5.85785 -24.59433 -6.50359 1.27308 2.86026
-0.02078 -0.00102 0.00651 -130.89149 -25.5457 2.18713 43.45823 -1.51974 -7.76734 -15.03795 5.26057 -1.30538 -22.95512 -5.50309 -10.15387 34.09622 94.572 7.64907 1.65581 -25.48591 6.72245 1.30745 34.81622 -113.97088 18.97461 -3.31052 24.85067 -3.07775 -10.7226 -20.50067 -6.59144 -3.74383 -4.0507 30.99879 5.36718 5.6343 -24.57871 -6.49429 1.2807 2.86267
-0.02213 -0.00111 0.00673 -130.67847 -25.34236 2.22044 43.52913 -1.50189 -7.73989 -15.25317 4.98029 -1.30668 -22.50437 -5.79174 -9.8609 34.25724 94.58009 7.79894 1.60222 -25.51233 6.68427 1.4556 34.74719 -117.78255 20.39894 -3.87744 24.4943 -2.92303 -10.33511 -20.48097 -6.63247 -3.79094 -4.07572 30.69474 5.38936 5.46179 -24.56442 -6.48744 1.28395 2.86323
-0.0236 -0.00123 0.00707 -130.41228 -25.08358 2.24436 43.61648 -1.49108 -7.73278 -15.53442 4.69031 -1.30789 -22.1412 -6.06352 -9.87662 33.85416 94.85317 8.05154 1.58717 -25.52765 6.61793 1.71854 34.61775 -122.89887 22.34203 -4.62952 24.05418 -2.7363 -9.84048 -20.45884 -6.68486 -3.84978 -4.10725 30.30952 5.40911 5.23913 -24.53813 -6.47683 1.29095 2.86528
-0.02482 -0.00132 0.00715 -130.25223 -24.92446 2.28473 43.66171 -1.46194 -7.67853 -15.69139 4.41924 -1.30945 -21.53121 -6.36033 -9.28337 34.62789 95.00863 8.21496 1.56013 -25.56118 6.5845 1.81672 34.58864 -125.91337 23.41947 -5.09535 23.76952 -2.6061 -9.54598 -20.44088 -6.71634 -3.88664 -4.12657 30.07639 5.4343 5.09973 -24.53695 -6.47349 1.29167 2.8649
-0.02537 -0.00132 0.00649 -130.39871 -25.11392 2.37984 43.66205 -1.39081 -7.50146 -15.48887 4.18258 -1.31038 -20.33883 -6.74442 -6.93957 38.54558 94.48322 8.06862 1.44513 -25.66821 6.67151 1.38571 34.89741 -122.17756 21.79434 -4.61615 23.9983 -2.64928 -9.83309 -20.43754 -6.68367 -3.85976 -4.11016 30.34514 5.46794 5.21162 -24.61105 -6.4884 1.2764 2.85847
-0.02566 -0.0013 0.00556 -130.65066 -25.39466 2.49071 43.60851 -1.301 -7.27723 -15.15948 3.96978 -1.31194 -18.89635 -7.15112 -3.98971 43.66697 93.79027 7.80986 1.31113 -25.79032 6.79359 0.78181 35.3032 -116.32701 19.29522 -3.84911 24.37344 -2.74945 -10.32386 -20.4381 -6.63028 -3.81052 -4.0814 30.7566 5.50801 5.40908 -24.70906 -6.51114 1.25409 2.84929
-0.02605 -0.00129 0.00475 -130.84863 -25.58951 2.58952 43.5306 -1.21581 -7.07293 -14.89024 3.7604 -1.31434 -17.54568 -7.53967 -1.3483 48.31949 93.15451 7.5662 1.1817 -25.89159 6.89532 0.26077 35.63743 -111.72702 17.27826 -3.26163 24.63173 -2.81833 -10.71782 -20.43521 -6.58908 -3.77184 -4.05872 31.05295 5.55004 5.56755 -24.79161 -6.53218 1.23272 2.84036
-0.02649 -0.00128 0.00396 -131.07272 -25.96392 2.70788 43.65163 -1.14522 -6.87414 -14.61367 3.48984 -1.31214 -16.28921 -7.9627 1.42955 52.6575 92.64817 7.48582 1.07437 -26.05039 7.01174 -0.26997 36.08179 -106.01616 14.93469 -2.4881 25.0936 -2.90797 -11.1266 -20.43909 -6.53682 -3.73175 -4.03425 31.55276 5.5728 5.72648 -24.89353 -6.54568 1.22063 2.83555
-0.02677 -0.00127 0.00307 -131.26619 -25.99479 2.79039 43.35471 -1.04154 -6.65312 -14.31993 3.35303 -1.31947 -14.76717 -8.31703 4.06809 57.91555 91.81952 7.03929 0.91789 -26.09452 7.10789 -0.82345 36.32452 -102.04477 13.0476 -2.0198 25.17593 -2.96918 -11.55384 -20.43011 -6.50219 -3.68926 -4.01051 31.67243 5.6355 5.90217 -24.96093 -6.57629 1.18809 2.82175
-0.0267 -0.00124 0.00201 -131.36206 -24.98309 2.76131 41.83717 -0.83743 -6.3806 -14.02328 3.57637 -1.35479 -12.68954 -8.49713 6.17456 65.60208 90.06784 5.54782 0.58865 -25.80583 7.1334 -1.41381 35.95602 -103.76542 12.68501 -2.54488 24.09551 -2.9312 -11.98427 -20.38238 -6.52429 -3.64478 -3.9917 30.62767 5.82228 6.1362 -24.92558 -6.65643 1.0952 2.78126
-0.02648 -0.0012 0.00088 -131.42119 -23.63564 2.69717 39.91545 -0.60323 -6.08771 -13.71115 3.93423 -1.39934 -10.33492 -8.60303 8.11896 74.13686 88.00393 3.70132 0.21641 -25.40355 7.13889 -2.01923 35.38741 -107.23535 12.79999 -3.37158 22.64262 -2.86387 -12.42572 -20.32203 -6.5643 -3.59881 -3.97406 29.21011 6.0464 6.37896 -24.85501 -6.75279 0.98293 2.73225
